{"title":"Prince Royce - Culpa al Corazón (2016 Latin)","uid":13540075,"size":88048129,"categoryP":"video","categoryS":"music_videos","magnet":"?xt=urn:btih:830cc8a0a262cbabcd35b8ae68f8600ca020631a&amp;dn=Prince+Royce+-+Culpa+al+Coraz%26oacute%3Bn+%282016+Latin%29&amp;tr=udp%3A%2F%2Ftracker.leechers-paradise.org%3A6969&amp;tr=udp%3A%2F%2Fzer0day.ch%3A1337&amp;tr=udp%3A%2F%2Fopen.demonii.com%3A1337&amp;tr=udp%3A%2F%2Ftracker.coppersurfer.tk%3A6969&amp;tr=udp%3A%2F%2Fexodus.desync.com%3A6969","seeders":5,"leechers":0,"uploader":"MeRaDil","files":1,"time":1455475757,"description":"PRINCE ROYCE - CULPA AL CORAZÓN\r\n\r\n \nhttp://gifyu.com/images/culpa-1.png\r\n \nhttp://gifyu.com/images/culpa.png\r\n\r\n\r\nMEDIA INFO\r\nGeneral\r\nPrince Royce - Culpa al Corazón\r\nFormat                                   : MPEG-4\r\nFormat profile                           : Base Media\r\nCodec ID                                 : isom\r\nFile size                                : 84.0 MiB\r\nDuration                                 : 4mn 52s\r\nOverall bit rate                         : 2 406 Kbps\r\nMusicVid name                            : Culpa al Corazón\r\nPerformer                                : Prince Royce\r\nGenre                                    : Latin Pop\r\nContentType                              : Music Video\r\nRecorded date                            : 2016\r\nWriting application                      : Lavf56.32.100 / MeRaDil\r\nCover                                    : Yes\r\nRelease date                             : USA - january 22 - 2016\r\n\r\nVideo\r\nID                                       : 1\r\nFormat                                   : AVC\r\nFormat/Info                              : Advanced Video Codec\r\nFormat profile                           :   \r\nFormat settings, CABAC                   : Yes\r\nFormat settings, ReFrames                : 3 frames\r\nCodec ID                                 : avc1\r\nCodec ID/Info                            : Advanced Video Coding\r\nDuration                                 : 4mn 52s\r\nBit rate                                 : 2 141 Kbps\r\nWidth                                    : 1 920 pixels\r\nHeight                                   : 1 080 pixels\r\nDisplay aspect ratio                     : 16:9\r\nFrame rate mode                          : Variable\r\nFrame rate                               : 23.976 fps\r\nStream size                              : 74.7 MiB (89%)\r\n\r\nAudio\r\nID                                       : 2\r\nFormat                                   : AAC\r\nFormat/Info                              : Advanced Audio Codec\r\nFormat profile                           : LC\r\nCodec ID                                 : 40\r\nDuration                                 : 4mn 52s\r\nBit rate mode                            : Constant\r\nBit rate                                 : 256 Kbps\r\nChannel(s)                               : 2 channels\r\nChannel positions                        : Front: L R\r\nSampling rate                            : 44.1 KHz\r\nCompression mode                         : Lossy\r\nStream size                              : 8.94 MiB (11%)","torrent":{"xt":"urn:btih:830cc8a0a262cbabcd35b8ae68f8600ca020631a","amp;dn":"Prince+Royce+-+Culpa+al+Coraz%26oacute%3Bn+%282016+Latin%29","amp;tr":["udp%3A%2F%2Ftracker.leechers-paradise.org%3A6969","udp%3A%2F%2Fzer0day.ch%3A1337","udp%3A%2F%2Fopen.demonii.com%3A1337","udp%3A%2F%2Ftracker.coppersurfer.tk%3A6969","udp%3A%2F%2Fexodus.desync.com%3A6969"],"infoHash":"830cc8a0a262cbabcd35b8ae68f8600ca020631a","infoHashBuffer":{"type":"Buffer","data":[131,12,200,160,162,98,203,171,205,53,184,174,104,248,96,12,160,32,99,26]},"announce":[],"urlList":[]}}